<?xml version="1.0" standalone="no"?>
<!DOCTYPE svg PUBLIC "-//W3C//DTD SVG 20010904//EN"
 "http://www.w3.org/TR/2001/REC-SVG-20010904/DTD/svg10.dtd">
<svg version="1.0" xmlns="http://www.w3.org/2000/svg"
 width="500.000000pt" height="500.000000pt" viewBox="0 0 500.000000 500.000000"
 preserveAspectRatio="xMidYMid meet">
<metadata>
Created by potrace 1.11, written by Peter Selinger 2001-2013
</metadata>
<g transform="translate(0.000000,500.000000) scale(0.100000,-0.100000)"
fill="#000000" stroke="none">
<path d="M0 2500 l0 -2500 2500 0 2500 0 0 2500 0 2500 -2500 0 -2500 0 0
-2500z m1805 786 c242 -70 409 -233 460 -447 19 -83 19 -238 0 -314 -46 -180
-168 -315 -353 -391 -32 -13 -56 -28 -55 -32 1 -5 99 -174 217 -376 119 -203
216 -372 216 -377 0 -6 -128 -8 -311 -7 l-311 3 -197 360 c-178 326 -199 360
-224 363 l-27 3 0 -365 0 -366 -280 0 -280 0 0 986 0 985 543 -4 c480 -3 549
-5 602 -21z"/>
<path d="M1220 2651 l0 -201 163 0 c178 0 221 8 268 47 42 36 59 79 59 151 0
80 -31 139 -90 172 -42 24 -55 25 -222 28 l-178 4 0 -201z"/>
</g>
</svg>
